<?xml version="1.0" standalone="no"?>
<!DOCTYPE svg PUBLIC "-//W3C//DTD SVG 20010904//EN"
 "http://www.w3.org/TR/2001/REC-SVG-20010904/DTD/svg10.dtd">
<svg version="1.0" xmlns="http://www.w3.org/2000/svg"
 width="293.000000pt" height="293.000000pt" viewBox="0 0 293.000000 293.000000"
 preserveAspectRatio="xMidYMid meet">
<metadata>
Created by potrace 1.15, written by Peter Selinger 2001-2017
</metadata>
<g transform="translate(0.000000,293.000000) scale(0.100000,-0.100000)"
fill="#000000" stroke="none">
<path d="M1098 2824 c-22 -12 -31 -12 -48 -2 -13 8 -23 9 -28 3 -4 -5 -16 -11
-27 -13 -36 -5 -45 -8 -57 -20 -7 -7 -17 -12 -23 -12 -21 0 -71 -29 -96 -56
-13 -14 -39 -32 -57 -40 -19 -7 -36 -22 -39 -33 -3 -11 -16 -22 -29 -25 -13
-4 -24 -12 -24 -19 0 -6 -15 -28 -33 -47 -18 -19 -37 -44 -41 -55 -7 -19 -8
-19 -20 3 -12 22 -13 22 -29 4 -20 -22 -42 -87 -42 -122 0 -14 -9 -33 -20 -42
-20 -17 -20 -17 8 -18 30 0 35 -19 18 -78 -11 -38 0 -78 36 -130 16 -25 23
-49 23 -83 0 -26 5 -60 11 -76 7 -15 16 -66 21 -113 5 -47 11 -109 14 -137 4
-36 10 -53 20 -53 9 0 15 -12 16 -32 1 -41 2 -44 16 -93 7 -22 17 -60 23 -85
9 -38 27 -61 125 -156 118 -116 130 -137 99 -178 -12 -16 -9 -28 31 -109 26
-50 62 -117 82 -148 35 -55 39 -58 78 -59 54 0 60 8 21 34 -32 22 -48 56 -61
131 -7 36 -6 38 7 21 9 -12 20 -17 31 -13 10 4 15 3 11 -3 -3 -6 1 -10 10 -10
9 0 26 -11 38 -23 12 -13 34 -26 49 -29 23 -4 32 1 53 28 14 18 25 37 25 43 0
6 5 11 11 11 5 0 8 4 5 9 -4 5 -3 11 1 13 13 5 53 66 53 80 0 12 53 75 173
210 23 26 52 67 65 90 35 65 42 68 42 18 l0 -45 21 25 c43 53 44 79 5 93 -4 1
-14 43 -21 92 -11 75 -11 93 1 116 11 23 11 29 0 38 -15 12 -21 -7 -32 -94 -8
-61 -13 -73 -24 -55 -5 8 -6 18 -4 22 3 4 2 8 -3 7 -15 -1 -115 -164 -149
-244 -18 -41 -59 -84 -81 -85 -7 0 -13 -3 -13 -8 0 -4 -21 -21 -48 -38 -37
-25 -67 -34 -139 -45 -90 -12 -92 -12 -140 12 -35 18 -54 36 -69 66 -30 58
-56 88 -81 95 -21 6 -21 3 9 -40 l31 -47 -64 60 c-82 76 -119 129 -119 170 0
18 -10 48 -23 67 -44 63 -62 157 -35 174 7 4 46 8 87 8 57 1 83 6 104 20 36
24 35 41 -2 22 -39 -21 -107 -31 -115 -18 -8 13 29 26 45 17 5 -4 16 0 22 8
16 20 94 31 100 14 3 -6 6 9 6 34 1 25 -5 52 -11 61 -20 25 -77 41 -162 47
l-80 6 -12 49 c-17 65 -13 77 42 141 38 45 52 55 78 55 21 0 40 -8 55 -24 32
-34 79 -52 94 -37 8 8 5 11 -13 11 -23 1 -60 20 -60 32 0 8 54 -4 60 -13 3 -5
35 -9 70 -10 84 -2 86 -1 72 13 -18 18 -15 28 8 28 11 0 20 4 20 10 0 25 35
-8 57 -54 l25 -51 -7 40 c-4 22 -12 46 -18 54 -10 12 -9 13 7 8 14 -6 17 -4
12 9 -5 12 -2 15 10 10 9 -3 39 -9 68 -12 48 -6 55 -4 70 17 9 13 16 31 16 41
0 22 12 23 51 3 16 -9 27 -21 23 -26 -10 -17 47 -120 72 -131 12 -6 29 -24 37
-42 8 -17 33 -70 56 -117 22 -47 41 -95 41 -106 0 -18 17 -33 37 -33 3 0 3 27
0 60 -4 43 -2 60 6 59 53 -6 77 19 42 45 -14 10 -14 14 1 34 11 15 23 22 35
19 11 -3 22 -1 25 4 9 15 22 10 27 -8 3 -10 5 -3 6 15 0 18 -4 42 -10 53 -10
20 -11 20 -44 -5 -22 -17 -36 -22 -40 -15 -4 6 3 13 15 16 17 4 20 11 15 27
-4 11 -9 80 -11 151 -5 173 -30 238 -124 327 -39 37 -121 98 -150 111 -8 4
-33 18 -55 32 -51 33 -81 45 -107 45 -30 0 -98 22 -98 32 0 12 -31 8 -62 -8z"/>
<path d="M1268 2080 c-2 -6 -21 -13 -43 -16 -75 -8 -195 -72 -195 -103 0 -22
31 -51 53 -51 9 0 17 -4 17 -10 0 -5 11 -10 25 -10 14 0 25 -4 25 -10 0 -5 -8
-10 -17 -10 -15 0 -16 -2 -3 -10 20 -13 80 -13 119 1 50 18 36 28 -31 22 -35
-3 -60 -2 -56 2 4 5 3 14 -3 21 -12 15 -3 37 12 29 5 -4 9 -15 9 -26 0 -22 18
-25 34 -5 13 17 130 47 154 40 14 -5 13 -3 -2 10 -11 9 -16 16 -10 16 5 0 -4
7 -21 16 -18 10 -55 16 -90 16 -84 0 -24 15 67 17 37 0 69 5 73 10 3 5 -19 21
-49 35 -62 30 -63 30 -68 16z"/>
<path d="M1088 1649 c-31 -15 -59 -32 -63 -38 -10 -17 -48 -13 -96 8 -24 11
-47 17 -51 15 -14 -9 -9 -52 8 -69 15 -15 15 -18 2 -31 -8 -9 -36 -18 -61 -22
-46 -7 -46 -7 -34 -32 7 -14 20 -25 29 -25 10 0 23 -6 30 -13 9 -9 9 -12 0
-12 -17 0 66 -108 88 -115 24 -8 71 4 64 16 -3 5 -9 7 -14 4 -5 -3 -11 -1 -15
5 -6 9 13 14 41 11 22 -2 10 28 -15 34 -13 3 -38 15 -53 27 -22 15 -27 25 -22
41 9 29 7 28 51 33 47 5 64 9 83 17 71 30 124 39 166 30 40 -9 45 -8 70 18 15
16 25 31 23 34 -9 8 -153 -23 -203 -44 -33 -15 -56 -19 -76 -14 l-28 8 58 50
c53 46 86 84 78 89 -2 2 -28 -10 -60 -25z"/>
<path d="M1903 1220 c11 -28 8 -32 -59 -102 -123 -127 -218 -267 -379 -558
-32 -58 -83 -145 -112 -194 -56 -92 -173 -319 -173 -335 0 -19 173 -33 339
-28 182 6 260 20 421 74 l105 35 2 60 c6 222 106 510 213 617 100 100 180 127
286 96 32 -9 75 -27 94 -39 35 -23 80 -41 80 -33 0 8 -105 74 -130 82 -14 4
-43 18 -65 31 -22 12 -69 32 -105 44 -36 12 -69 25 -75 29 -5 4 -48 25 -95 47
-98 45 -175 88 -278 156 -41 26 -75 48 -77 48 -2 0 2 -13 8 -30z"/>
<path d="M642 773 c-49 -27 -109 -106 -127 -170 -31 -105 -46 -215 -33 -231
28 -34 253 -192 273 -192 3 0 5 9 5 21 0 11 8 41 19 67 10 26 28 79 40 117 19
66 51 124 102 187 l22 26 -52 52 -51 51 -31 -25 c-17 -14 -37 -26 -44 -26 -23
0 -53 40 -71 92 -8 26 -16 48 -17 48 -1 0 -17 -8 -35 -17z"/>
</g>
</svg>
